<?xml version="1.0" encoding="UTF-8"?>
<!DOCTYPE svg PUBLIC "-//W3C//DTD SVG 1.1//EN" "http://www.w3.org/Graphics/SVG/1.1/DTD/svg11.dtd">
<svg version="1.1" xmlns="http://www.w3.org/2000/svg" xmlns:xlink="http://www.w3.org/1999/xlink" x="0" y="0" width="1366" height="1024" viewBox="0, 0, 1366, 1024">
  <defs>
    <pattern id="Pattern_1" patternUnits="userSpaceOnUse" x="144.941" y="333.636" width="48" height="48" patternTransform="matrix(0.544, -0.544, 0.544, 0.544, 0, 0)">
      <g transform="translate(-0, -0)">
        <path d="M14,0 L16,0 L16,48 L14,48 L14,0 z" fill="#000000"/>
        <path d="M30,0 L32,0 L32,48 L30,48 L30,0 z" fill="#000000"/>
        <path d="M46,0 L48,0 L48,48 L46,48 L46,0 z" fill="#000000"/>
        <path d="M0,16 L0,14 L48,14 L48,16 L0,16 z" fill="#000000"/>
        <path d="M0,32 L0,30 L48,30 L48,32 L0,32 z" fill="#000000"/>
        <path d="M0,48 L0,46 L48,46 L48,48 L0,48 z" fill="#000000"/>
      </g>
    </pattern>
    <pattern id="Pattern_2" patternUnits="userSpaceOnUse" x="144.941" y="249.019" width="48" height="48" patternTransform="matrix(0.544, -0.544, 0.544, 0.544, 0, 0)">
      <g transform="translate(-0, -0)">
        <path d="M14,0 L16,0 L16,48 L14,48 L14,0 z" fill="#000000"/>
        <path d="M30,0 L32,0 L32,48 L30,48 L30,0 z" fill="#000000"/>
        <path d="M46,0 L48,0 L48,48 L46,48 L46,0 z" fill="#000000"/>
        <path d="M0,16 L0,14 L48,14 L48,16 L0,16 z" fill="#000000"/>
        <path d="M0,32 L0,30 L48,30 L48,32 L0,32 z" fill="#000000"/>
        <path d="M0,48 L0,46 L48,46 L48,48 L0,48 z" fill="#000000"/>
      </g>
    </pattern>
    <pattern id="Pattern_3" patternUnits="userSpaceOnUse" x="144.941" y="160.62" width="48" height="48" patternTransform="matrix(0.544, -0.544, 0.544, 0.544, 0, 0)">
      <g transform="translate(-0, -0)">
        <path d="M14,0 L16,0 L16,48 L14,48 L14,0 z" fill="#000000"/>
        <path d="M30,0 L32,0 L32,48 L30,48 L30,0 z" fill="#000000"/>
        <path d="M46,0 L48,0 L48,48 L46,48 L46,0 z" fill="#000000"/>
        <path d="M0,16 L0,14 L48,14 L48,16 L0,16 z" fill="#000000"/>
        <path d="M0,32 L0,30 L48,30 L48,32 L0,32 z" fill="#000000"/>
        <path d="M0,48 L0,46 L48,46 L48,48 L0,48 z" fill="#000000"/>
      </g>
    </pattern>
  </defs>
  <g id="Layer_1">
    <g>
      <path d="M989.417,333.636 L989.417,390.836 L144.941,390.836 L144.941,333.636 L989.417,333.636 z" fill="url(#Pattern_1)"/>
      <path d="M989.417,333.636 L989.417,390.836 L144.941,390.836 L144.941,333.636 L989.417,333.636 z M983.417,339.636 L150.941,339.636 L150.941,384.836 L983.417,384.836 L983.417,339.636 z" fill="#000000"/>
    </g>
    <g>
      <path d="M857.468,249.019 L857.468,306.219 L144.941,306.219 L144.941,249.019 L857.468,249.019 z" fill="url(#Pattern_2)"/>
      <path d="M857.468,249.019 L857.468,306.219 L144.941,306.219 L144.941,249.019 L857.468,249.019 z M851.468,255.019 L150.941,255.019 L150.941,300.219 L851.468,300.219 L851.468,255.019 z" fill="#000000"/>
    </g>
    <g>
      <path d="M989.417,160.62 L989.417,217.82 L144.941,217.82 L144.941,160.62 L989.417,160.62 z" fill="url(#Pattern_3)"/>
      <path d="M989.417,160.62 L989.417,217.82 L144.941,217.82 L144.941,160.62 L989.417,160.62 z M983.417,166.62 L150.941,166.62 L150.941,211.82 L983.417,211.82 L983.417,166.62 z" fill="#000000"/>
    </g>
  </g>
  <g id="Layer_2">
    <text transform="matrix(1, 0, 0, 1, 592.567, 483.154)">
      <tspan x="-447.625" y="-31.503" font-family="Menlo-Bold" font-size="36" fill="#000000">Fortschritte sind allerdings durchaus</tspan>
      <tspan x="-447.625" y="29.997" font-family="Menlo-Bold" font-size="36" fill="#000000">erkennbar</tspan>
      <tspan x="-252.561" y="29.997" font-family="Menlo-Bold" font-size="29" fill="#000000">.</tspan>
    </text>
    <text transform="matrix(1, 0, 0, 1, 1013, 378.64)">
      <tspan x="-16.905" y="3.565" font-family="Menlo-Bold" font-size="29" fill="#000000">.</tspan>
    </text>
  </g>
</svg>
